# xmcd
#
# Track frame offsets:
# 150
# 17496
# 40146
# 56603
# 75940
# 89344
# 104037
# 117076
# 132093
# 146433
# 165636
# 177073
# 195952
# 212461
#
# Disc length: 3062 seconds
#
#
# Revision: 0
# Processed by: cddbd v1.5.2PL0 Copyright (c) Steve Scherf et al.
# Submitted via: FreeRIP 2.945 
#
DISCID=a80bf40e
DTITLE=RENE E RENAN - RENE E RENAN ACUSTICO
DYEAR=2007
DGENRE=SERTANEJO
TTITLE0=RENE E RENAN - BOATE AZUL
TTITLE1=RENE E RENAN - POT-PORRI DE VIOLAS
TTITLE2=RENE E RENAN - VEM FICAR COMIGO
TTITLE3=RENE E RENAN - DOU A VIDA POR UM BEIJO
TTITLE4=RENE E RENAN - AMARGURADO
TTITLE5=RENE E RENAN - PRECISO TE ENCONTRAR
TTITLE6=RENE E RENAN - SÓ FALTA VOCE
TTITLE7=RENE E RENAN - NOS BARES DA CIDADE
TTITLE8=RENE E RENAN - LIGUEI PRA DIZER QUE TE AMO
TTITLE9=RENE E RENAN - EU E DEUS NO MEU CAMINHÃO
TTITLE10=RENE E RENAN - MENSAGEM PRA ELA
TTITLE11=RENE E RENAN - NÃO CONSEGUI DIZER ADEUS
TTITLE12=RENE E RENAN - VOCÊ DECIDE
TTITLE13=RENE E RENAN - BOATE AZUL(BONUS)
EXTD=AURORA FM
EXTT0=
EXTT1=
EXTT2=
EXTT3=
EXTT4=
EXTT5=
EXTT6=
EXTT7=
EXTT8=
EXTT9=
EXTT10=
EXTT11=
EXTT12=
EXTT13=
PLAYORDER=
